<?xml version="1.0" encoding="UTF-8" standalone="no"?>
<svg
   xmlns:dc="http://purl.org/dc/elements/1.1/"
   xmlns:cc="http://creativecommons.org/ns#"
   xmlns:rdf="http://www.w3.org/1999/02/22-rdf-syntax-ns#"
   xmlns:svg="http://www.w3.org/2000/svg"
   xmlns="http://www.w3.org/2000/svg"
   xmlns:xlink="http://www.w3.org/1999/xlink"
   xmlns:sodipodi="http://sodipodi.sourceforge.net/DTD/sodipodi-0.dtd"
   xmlns:inkscape="http://www.inkscape.org/namespaces/inkscape"
   sodipodi:docname="pic2up_icon.svg"
   inkscape:version="1.0rc1 (09960d6f05, 2020-04-09)"
   id="svg8"
   version="1.1"
   viewBox="0 0 237.24223 237.3985"
   height="237.3985mm"
   width="237.24223mm">
  <defs
     id="defs2">
    <clipPath
       id="clipPath936"
       clipPathUnits="userSpaceOnUse">
      <g
         style="font-style:normal;font-weight:normal;font-size:67.6709px;line-height:1.25;font-family:sans-serif;letter-spacing:0px;word-spacing:0px;fill:#000000;fill-opacity:1;stroke:none;stroke-width:1.69177"
         id="g944"
         transform="translate(9.1456132,-103.07131)"
         aria-label="p2u">
        <path
           inkscape:connector-curvature="0"
           id="path938"
           style="font-style:normal;font-variant:normal;font-weight:bold;font-stretch:normal;font-size:67.6709px;font-family:Caladea;-inkscape-font-specification:'Caladea, Bold';font-variant-ligatures:normal;font-variant-caps:normal;font-variant-numeric:normal;font-variant-east-asian:normal;stroke-width:1.69177"
           d="m 39.11759,151.60412 q -0.524314,-5.8858 4.712261,-9.49709 5.236575,-3.61129 10.21565,-2.11286 4.979076,1.49843 9.704489,8.35054 4.686995,6.79641 4.029922,12.75711 -0.601364,5.92227 -6.506438,9.99458 -3.008245,2.07457 -6.492856,2.5048 l 6.223715,9.02474 q 2.401189,-0.0941 5.159696,-1.33881 l 1.275469,2.32629 -14.874101,10.25761 -1.352305,-2.43771 q 1.569446,-1.65776 1.936379,-3.39045 L 33.978892,160.24446 q -1.383047,-2.0055 -2.662397,-2.19185 -1.262059,-0.28048 -3.288683,0.95273 l -1.331177,-2.28787 q 6.873284,-6.95948 7.941356,-8.27147 l 1.348511,-0.19015 z m 4.844719,-4.65629 q -2.395454,1.65197 -2.174604,4.95217 0.276557,3.26177 3.349997,7.71843 l 7.760435,11.25307 q 2.216774,0.1153 4.445103,-1.42142 6.016491,-4.14915 -2.051288,-15.84788 -6.761567,-9.80465 -11.329643,-6.65437 z" />
        <path
           inkscape:connector-curvature="0"
           id="path940"
           style="font-style:normal;font-variant:normal;font-weight:bold;font-stretch:normal;font-size:67.6709px;font-family:Caladea;-inkscape-font-specification:'Caladea, Bold';font-variant-ligatures:normal;font-variant-caps:normal;font-variant-numeric:normal;font-variant-east-asian:normal;stroke-width:1.69177"
           d="m 110.78887,155.23897 -0.0277,6.63169 -30.654646,-0.12787 0.01637,-3.92488 q 11.142531,-10.64561 15.433424,-17.25952 4.291175,-6.68158 4.320532,-13.71929 0.02936,-7.03771 -4.842905,-7.05804 -2.16545,-0.009 -3.527325,2.01543 -1.361592,1.9568 -1.372036,4.4606 -0.01016,2.43613 1.403292,4.26916 -2.445728,2.29063 -5.220211,2.27905 -2.706812,-0.0113 -4.32469,-1.50681 -1.617595,-1.56319 -1.605457,-4.47302 0.02004,-4.80459 4.025293,-7.8331 4.073203,-3.09589 10.840234,-3.06767 5.007605,0.0209 8.519125,1.795 6.68524,3.41146 6.6525,11.26122 -0.0226,5.41362 -4.17616,11.5544 -4.15329,6.07311 -13.662987,14.62772 z" />
        <path
           inkscape:connector-curvature="0"
           id="path942"
           style="font-style:normal;font-variant:normal;font-weight:bold;font-stretch:normal;font-size:67.6709px;font-family:Caladea;-inkscape-font-specification:'Caladea, Bold';font-variant-ligatures:normal;font-variant-caps:normal;font-variant-numeric:normal;font-variant-east-asian:normal;stroke-width:1.69177"
           d="m 129.43239,168.91925 q -3.80906,-2.58186 -4.549,-6.4352 -0.73993,-3.85335 1.99379,-7.88647 l 7.85946,-11.59524 q 1.36686,-2.01656 1.07623,-3.27632 -0.19664,-1.27781 -2.08125,-2.71873 l 1.64881,-2.07071 q 0.84211,0.32554 3.46055,1.52811 5.94702,2.80473 8.08124,3.51558 l 0.61055,1.1496 -12.41567,18.31711 q -3.64497,5.3775 -0.172,7.73154 1.45641,0.98718 3.37031,1.05819 1.96992,0.10898 3.75936,-0.72189 l 9.07445,-13.38774 q 1.36686,-2.01656 1.07623,-3.27632 -0.25266,-1.31578 -2.13727,-2.7567 l 1.64882,-2.0707 q 0.8421,0.32554 3.46054,1.5281 5.94703,2.80473 8.08124,3.51558 l 0.66657,1.18757 -15.9847,23.58258 q 0.51094,1.89961 2.83993,4.13225 l -1.49694,1.84664 -10.69898,-7.25197 1.86982,-3.96468 q -5.94467,1.77494 -11.04209,-1.68018 z" />
      </g>
    </clipPath>
    <filter
       height="1.0000474"
       y="-2.377252e-05"
       width="1.0000757"
       x="-3.7862334e-05"
       id="filter1295"
       style="color-interpolation-filters:sRGB"
       inkscape:collect="always">
      <feGaussianBlur
         id="feGaussianBlur1297"
         stdDeviation="0.0029964756"
         inkscape:collect="always" />
    </filter>
  </defs>
  <sodipodi:namedview
     inkscape:window-maximized="1"
     inkscape:window-y="32"
     inkscape:window-x="1920"
     inkscape:window-height="1020"
     inkscape:window-width="1920"
     showgrid="false"
     inkscape:document-rotation="0"
     inkscape:current-layer="layer4"
     inkscape:document-units="mm"
     inkscape:cy="-218.37436"
     inkscape:cx="272.86639"
     inkscape:zoom="0.26653423"
     inkscape:pageshadow="2"
     inkscape:pageopacity="0.0"
     borderopacity="1.0"
     bordercolor="#666666"
     pagecolor="#ffffff"
     id="base" />
  <metadata
     id="metadata5">
    <rdf:RDF>
      <cc:Work
         rdf:about="">
        <dc:format>image/svg+xml</dc:format>
        <dc:type
           rdf:resource="http://purl.org/dc/dcmitype/StillImage" />
        <dc:title></dc:title>
      </cc:Work>
    </rdf:RDF>
  </metadata>
  <g
     style="display:inline"
     transform="translate(12.436326,58.548628)"
     inkscape:label="Ebene 4"
     id="layer4"
     inkscape:groupmode="layer">
    <g
       transform="matrix(1.2489485,0,0,0.78471256,-24.031772,41.160849)"
       id="g962"
       style="display:inline;filter:url(#filter1295)">
      <rect
         style="fill:#d7d7f4;fill-opacity:1;fill-rule:nonzero;stroke:#eb8700;stroke-width:0.0349509;stroke-linecap:butt;stroke-linejoin:round;stroke-miterlimit:0;stroke-dasharray:0.104852, 0.0349509;stroke-dashoffset:0;stroke-opacity:1;paint-order:stroke fill markers"
         id="rect977"
         width="189.93919"
         height="302.51489"
         x="9.291358"
         y="-127.05778" />
      <ellipse
         ry="71.747284"
         rx="79.943634"
         cy="23.78299"
         cx="103.09846"
         id="path862"
         style="fill:#330080;fill-opacity:1;fill-rule:nonzero;stroke:#eb8700;stroke-width:0.0225669;stroke-linecap:butt;stroke-linejoin:round;stroke-miterlimit:0;stroke-dasharray:0.0677001, 0.0225669;stroke-dashoffset:0;stroke-opacity:1;paint-order:stroke fill markers" />
      <text
         xml:space="preserve"
         style="font-style:normal;font-weight:normal;font-size:67.6708px;line-height:1.25;font-family:sans-serif;letter-spacing:0px;word-spacing:0px;fill:#aaaaff;fill-opacity:1;stroke:none;stroke-width:1.69177"
         id="text848"><textPath
           xlink:href="#path850"
           id="textPath852"
           style="font-style:normal;font-variant:normal;font-weight:bold;font-stretch:normal;font-size:67.6708px;font-family:Caladea;-inkscape-font-specification:'Caladea, Bold';font-variant-ligatures:normal;font-variant-caps:normal;font-variant-numeric:normal;font-variant-east-asian:normal;fill:#aaaaff">p2u</textPath></text>
      <path
         style="fill:none;stroke:#000000;stroke-width:0.264583px;stroke-linecap:butt;stroke-linejoin:miter;stroke-opacity:1"
         d="M 50.14211,38.27243 C 55.682193,38.13461 78.335783,5.41457 102.86825,15.79337 125.8124,5.85424 156.49985,39.2454 156.49985,39.2454"
         id="path850"
         inkscape:connector-curvature="0"
         sodipodi:nodetypes="ccc" />
      <path
         id="path862-2"
         style="fill:#d5d5ff;fill-opacity:1;fill-rule:nonzero;stroke:#eb8700;stroke-width:0.0132321;stroke-linecap:butt;stroke-linejoin:round;stroke-miterlimit:0;stroke-dasharray:0.039696, 0.0132321;stroke-dashoffset:0;stroke-opacity:1;paint-order:stroke fill markers"
         d="M 169.39542,77.116859 A 61.629807,31.997419 0 0 1 107.76562,109.11428 61.629807,31.997419 0 0 1 46.135811,77.116859 61.629807,31.997419 0 0 1 107.76562,45.11944 a 61.629807,31.997419 0 0 1 61.6298,31.997419"
         inkscape:connector-curvature="0"
         clip-path="url(#clipPath936)"
         transform="translate(-2.7230845,-43.04554)" />
      <path
         inkscape:connector-curvature="0"
         d="m 113.09292,60.93999 -10.55338,-5.71264 -10.688809,5.45503 2.171875,-11.80216 -8.491069,-8.47997 11.895668,-1.58149 5.441045,-10.69594 5.18005,10.82475 11.85382,1.86951 -8.69422,8.27155 z"
         inkscape:transform-center-y="-1.6611006"
         inkscape:transform-center-x="-0.067715846"
         style="fill:#d7d7f4;fill-opacity:1;fill-rule:nonzero;stroke:#eb8700;stroke-width:0.0396875;stroke-linecap:butt;stroke-linejoin:round;stroke-miterlimit:0;stroke-dasharray:0.119062, 0.0396875;stroke-dashoffset:0;stroke-opacity:1;paint-order:stroke fill markers"
         id="path950" />
    </g>
  </g>
</svg>
