<svg width="237.24mm" height="237.4mm" version="1.1" viewBox="0 0 237.24 237.4" xmlns="http://www.w3.org/2000/svg" xmlns:xlink="http://www.w3.org/1999/xlink">
 <defs>
  <clipPath id="clipPath936">
   <g transform="translate(9.1456 -103.07)" style="fill:#000000" aria-label="p2u">
    <path d="m39.118 151.6q-0.52431-5.8858 4.7123-9.4971t10.216-2.1129q4.9791 1.4984 9.7045 8.3505 4.687 6.7964 4.0299 12.757-0.60136 5.9223-6.5064 9.9946-3.0082 2.0746-6.4929 2.5048l6.2237 9.0247q2.4012-0.0941 5.1597-1.3388l1.2755 2.3263-14.874 10.258-1.3523-2.4377q1.5694-1.6578 1.9364-3.3904l-19.171-27.798q-1.383-2.0055-2.6624-2.1918-1.2621-0.28048-3.2887 0.95273l-1.3312-2.2879q6.8733-6.9595 7.9414-8.2715l1.3485-0.19015zm4.8447-4.6563q-2.3955 1.652-2.1746 4.9522 0.27656 3.2618 3.35 7.7184l7.7604 11.253q2.2168 0.1153 4.4451-1.4214 6.0165-4.1492-2.0513-15.848-6.7616-9.8046-11.33-6.6544z" style="font-variant-caps:normal;font-variant-east-asian:normal;font-variant-ligatures:normal;font-variant-numeric:normal;stroke-width:1.6918"/>
    <path d="m110.79 155.24-0.0277 6.6317-30.655-0.12787 0.01637-3.9249q11.143-10.646 15.433-17.26 4.2912-6.6816 4.3205-13.719 0.02936-7.0377-4.8429-7.058-2.1654-9e-3 -3.5273 2.0154-1.3616 1.9568-1.372 4.4606-0.01016 2.4361 1.4033 4.2692-2.4457 2.2906-5.2202 2.279-2.7068-0.0113-4.3247-1.5068-1.6176-1.5632-1.6055-4.473 0.02004-4.8046 4.0253-7.8331 4.0732-3.0959 10.84-3.0677 5.0076 0.0209 8.5191 1.795 6.6852 3.4115 6.6525 11.261-0.0226 5.4136-4.1762 11.554-4.1533 6.0731-13.663 14.628z" style="font-variant-caps:normal;font-variant-east-asian:normal;font-variant-ligatures:normal;font-variant-numeric:normal;stroke-width:1.6918"/>
    <path d="m129.43 168.92q-3.8091-2.5819-4.549-6.4352-0.73993-3.8534 1.9938-7.8865l7.8595-11.595q1.3669-2.0166 1.0762-3.2763-0.19664-1.2778-2.0812-2.7187l1.6488-2.0707q0.84211 0.32554 3.4606 1.5281 5.947 2.8047 8.0812 3.5156l0.61055 1.1496-12.416 18.317q-3.645 5.3775-0.172 7.7315 1.4564 0.98718 3.3703 1.0582 1.9699 0.10898 3.7594-0.72189l9.0744-13.388q1.3669-2.0166 1.0762-3.2763-0.25266-1.3158-2.1373-2.7567l1.6488-2.0707q0.8421 0.32554 3.4605 1.5281 5.947 2.8047 8.0812 3.5156l0.66657 1.1876-15.985 23.583q0.51094 1.8996 2.8399 4.1322l-1.4969 1.8466-10.699-7.252 1.8698-3.9647q-5.9447 1.7749-11.042-1.6802z" style="font-variant-caps:normal;font-variant-east-asian:normal;font-variant-ligatures:normal;font-variant-numeric:normal;stroke-width:1.6918"/>
   </g>
  </clipPath>
  <filter id="filter1295" x="-3.7862e-5" y="-2.3773e-5" width="1.0001" height="1" style="color-interpolation-filters:sRGB">
   <feGaussianBlur stdDeviation="0.0029964756"/>
  </filter>
  <filter id="filter1295-1" x="-3.7862e-5" y="-2.3773e-5" width="1.0001" height="1" style="color-interpolation-filters:sRGB">
   <feGaussianBlur stdDeviation="0.0029964756"/>
  </filter>
 </defs>
 <g transform="translate(12.436 58.549)">
  <g transform="matrix(1.2489 0 0 .78471 -24.032 41.161)" style="filter:url(#filter1295)">
   <rect x="9.2914" y="-127.06" width="189.94" height="302.51" style="fill:#d7d7f4;opacity:.997;paint-order:stroke fill markers;stroke-dasharray:0.104852, 0.0349509;stroke-linejoin:round;stroke-miterlimit:0;stroke-width:.034951;stroke:#eb8700"/>
   <ellipse cx="103.1" cy="23.783" rx="79.944" ry="71.747" style="fill:#330080;paint-order:stroke fill markers;stroke-dasharray:0.0677001, 0.0225669;stroke-linejoin:round;stroke-miterlimit:0;stroke-width:.022567;stroke:#eb8700"/>
   <text style="fill:#aaaaff;font-family:sans-serif;font-size:67.671px;letter-spacing:0px;line-height:1.25;stroke-width:1.6918;word-spacing:0px" xml:space="preserve"><textPath style="fill:#aaaaff;font-family:Caladea;font-size:67.671px;font-variant-caps:normal;font-variant-east-asian:normal;font-variant-ligatures:normal;font-variant-numeric:normal;font-weight:bold" xlink:href="#path850">p2u</textPath></text>
   <path id="path850" d="m50.142 38.272c5.5401-0.13782 28.194-32.858 52.726-22.479 22.944-9.9391 53.632 23.452 53.632 23.452" style="fill:none;stroke-width:.26458px;stroke:#000000"/>
   <path transform="translate(-2.7231 -43.046)" d="m169.4 77.117a61.63 31.997 0 0 1-61.63 31.997 61.63 31.997 0 0 1-61.63-31.997 61.63 31.997 0 0 1 61.63-31.997 61.63 31.997 0 0 1 61.63 31.997" clip-path="url(#clipPath936)" style="fill:#d5d5ff;paint-order:stroke fill markers;stroke-dasharray:0.039696, 0.0132321;stroke-linejoin:round;stroke-miterlimit:0;stroke-width:.013232;stroke:#eb8700"/>
   <path d="m113.09 60.94-10.553-5.7126-10.689 5.455 2.1719-11.802-8.4911-8.48 11.896-1.5815 5.441-10.696 5.18 10.825 11.854 1.8695-8.6942 8.2716z" style="fill:#d7d7f4;paint-order:stroke fill markers;stroke-dasharray:0.119062, 0.0396875;stroke-linejoin:round;stroke-miterlimit:0;stroke-width:.039688;stroke:#eb8700"/>
   <path transform="matrix(.10592 0 0 .16859 65.091 48.772)" d="m130.1 97.389-49.817-16.943-50.456 16.179 10.252-35.003-40.082-25.15 56.153-4.6904 25.684-31.722 24.452 32.105 55.955 5.5447-41.04 24.532z" style="fill:#d7d7f4;filter:url(#filter1295);paint-order:stroke fill markers;stroke-dasharray:0.44549, 0.148497;stroke-linejoin:round;stroke-miterlimit:0;stroke-width:.1485;stroke:#eb8700"/>
   <path transform="matrix(.10592 0 0 .16859 123.48 48.691)" d="m130.1 97.389-49.817-16.943-50.456 16.179 10.252-35.003-40.082-25.15 56.153-4.6904 25.684-31.722 24.452 32.105 55.955 5.5447-41.04 24.532z" style="fill:#d7d7f4;filter:url(#filter1295-1);paint-order:stroke fill markers;stroke-dasharray:0.44549, 0.148497;stroke-linejoin:round;stroke-miterlimit:0;stroke-width:.1485;stroke:#eb8700"/>
  </g>
 </g>
</svg>
